<svg width="192" height="48" viewBox="0 0 192 48" fill="none" xmlns="http://www.w3.org/2000/svg">
<path fill-rule="evenodd" clip-rule="evenodd" d="M24.031 46.146C36.282 46.146 46.211 36.231 46.211 24C46.211 11.768 36.282 1.854 24.031 1.854C11.784 1.854 1.858 11.768 1.858 24C1.858 36.23 11.784 46.146 24.031 46.146ZM24.031 0C37.31 0 48.068 10.746 48.068 24C48.068 37.254 37.308 48 24.031 48C10.761 48 0 37.254 0 24C0 10.746 10.76 0 24.031 0ZM24.031 41C23.241 41 22.765 40.473 22.736 39.752C22.563 40.077 22.34 40.297 22.004 40.364C21.67 40.4264 21.325 40.3866 21.014 40.25C20.7069 40.1271 20.4568 39.8939 20.313 39.596C20.163 39.292 20.213 38.979 20.32 38.614C19.948 39.144 19.32 39.282 18.767 39.026C18.009 38.674 17.733 38.035 18.044 37.306C18.98 35.098 19.911 32.93 20.851 30.725C20.936 30.525 21.008 30.318 21.102 30.119C21.186 29.942 21.239 29.812 21.318 29.705C21.3778 29.6247 21.4529 29.5571 21.539 29.506C20.085 29.665 19.386 30.234 19.001 30.486C18.899 30.554 18.905 30.564 18.512 30.442C18.3377 30.3914 18.1505 30.4116 17.991 30.498C17.8129 30.5923 17.6423 30.7002 17.481 30.821C16.96 31.225 16.428 31.615 15.935 32.051C15.705 32.255 15.375 32.602 15.42 32.916C15.456 33.207 16.171 33.881 16.385 34.082C16.892 34.558 16.125 35.454 15.103 35.369C15.375 35.085 15.439 34.844 15.404 34.63C15.303 34.629 15.108 34.648 14.924 34.484C14.704 34.287 14.802 33.705 14.598 33.507C14.238 33.159 13.061 33.127 12.358 33.097C12.062 33.085 11.753 33.006 11.775 32.549C11.328 32.579 11.235 32.909 11.235 33.207C10.85 32.991 10.521 31.955 11.941 31.72C11.701 31.503 11.303 31.424 11.058 31.7C10.827 31.32 11.411 30.573 12.462 30.994C12.459 30.991 12.935 30.373 14.356 31.954C14.535 31.82 14.713 31.688 14.876 31.538C15.426 31.041 16.812 29.695 16.812 29.695C16.812 28.938 16.926 27.472 17.933 26.593C18.362 26.218 18.773 26.019 19.681 25.856C19.681 25.856 19.242 25.173 19.173 24.904C18.381 25.69 16.79 25.925 16.79 24.599C15.493 25.886 14.288 25.192 14.288 24.384C14.2431 24.7935 14.1501 25.1963 14.011 25.584C13.848 26.018 13.254 27.681 11.721 27.681C11.686 28.259 11.683 30.16 9.851 30.586C9.772 30.604 9.671 30.631 9.621 30.691C8.881 31.605 5.805 32.565 5.429 32.306C5.667 32.136 6.044 31.911 6.104 30.838C6.142 30.13 6.22 26.456 6.22 21.281C6.22 19.449 6.419 13.515 12.33 12.688C13.227 12.563 14.109 12.628 14.873 13.191C15.913 13.963 16.425 15.261 15.813 16.732C15.793 16.785 15.778 16.837 15.75 16.884C15.542 17.234 15.627 17.536 15.898 17.804C16.391 18.291 16.966 18.62 17.658 18.7C18.094 18.75 18.456 18.559 18.745 18.261C19.408 17.583 19.858 16.786 20.021 15.85C20.329 14.072 19.851 13.18 19.824 13.124C19.343 12.166 18.322 11.464 17.138 11.364C16.596 10.358 15.04 10.756 15.04 10.756C14.65 10.84 14.513 10.95 14.416 11.141C14.416 11.141 13.733 10.109 14.376 9.695C15.021 9.28 16.46 9.109 16.46 9.109C16.46 8.437 17.58 7.914 19.603 8.273C22.05 8.707 22.576 7.757 22.576 7.757C22.679 8.919 21.783 9.519 21.496 9.681C22.425 10.681 23.722 12.679 24.031 15.514C24.341 12.679 25.638 10.681 26.566 9.681C26.279 9.519 25.384 8.919 25.486 7.757C25.486 7.757 26.012 8.707 28.459 8.273C30.483 7.914 31.603 8.437 31.603 9.109C31.603 9.109 33.042 9.279 33.686 9.695C34.33 10.109 33.646 11.141 33.646 11.141C33.549 10.95 33.412 10.841 33.022 10.756C33.022 10.756 31.466 10.358 30.924 11.364C29.74 11.464 28.72 12.166 28.239 13.124C28.212 13.18 27.762 14.064 28.041 15.85C28.188 16.788 28.654 17.583 29.318 18.261C29.607 18.559 29.968 18.749 30.405 18.7C31.096 18.62 31.672 18.29 32.165 17.804C32.435 17.536 32.52 17.234 32.313 16.884C32.284 16.837 32.269 16.785 32.25 16.732C31.637 15.262 32.15 13.962 33.19 13.192C33.953 12.629 34.836 12.562 35.732 12.688C41.644 13.515 41.842 19.449 41.842 21.281C41.842 26.456 41.921 30.13 41.958 30.838C42.018 31.911 42.395 32.136 42.634 32.306C42.257 32.566 39.181 31.605 38.441 30.691C38.391 30.631 38.291 30.604 38.212 30.586C36.38 30.16 36.377 28.259 36.342 27.681C34.809 27.681 34.214 26.018 34.051 25.584C33.9119 25.1963 33.8189 24.7935 33.774 24.384C33.774 25.192 32.57 25.886 31.273 24.599C31.273 25.925 29.681 25.69 28.89 24.904C28.82 25.173 28.38 25.856 28.38 25.856C29.29 26.019 29.7 26.218 30.13 26.593C31.136 27.473 31.25 28.938 31.25 29.695C31.25 29.695 32.637 31.041 33.187 31.538C33.349 31.688 33.527 31.82 33.707 31.954C35.127 30.373 35.603 30.991 35.6 30.994C36.651 30.573 37.235 31.321 37.005 31.699C36.76 31.424 36.361 31.503 36.121 31.719C37.541 31.955 37.212 32.991 36.828 33.207C36.828 32.909 36.734 32.579 36.288 32.549C36.31 33.006 36 33.085 35.704 33.097C35.001 33.127 33.824 33.159 33.464 33.507C33.26 33.705 33.359 34.287 33.138 34.484C32.955 34.648 32.76 34.629 32.658 34.63C32.624 34.844 32.688 35.085 32.96 35.37C31.937 35.454 31.17 34.558 31.678 34.082C31.89 33.882 32.606 33.207 32.642 32.916C32.688 32.602 32.357 32.255 32.127 32.051C31.634 31.615 31.103 31.225 30.581 30.821C30.4197 30.7002 30.2491 30.5923 30.071 30.498C29.9117 30.4118 29.725 30.3917 29.551 30.442C29.158 30.564 29.164 30.554 29.061 30.487C28.676 30.234 27.978 29.665 26.523 29.507C26.622 29.567 26.689 29.631 26.744 29.705C26.824 29.812 26.877 29.942 26.96 30.119C27.054 30.319 27.127 30.525 27.212 30.725C28.152 32.93 29.082 35.098 30.018 37.305C30.33 38.035 30.053 38.675 29.296 39.025C28.742 39.282 28.114 39.145 27.743 38.615C27.85 38.979 27.9 39.292 27.749 39.596C27.6056 39.8938 27.3559 40.1272 27.049 40.25C26.738 40.3866 26.393 40.4264 26.059 40.364C25.722 40.297 25.499 40.077 25.326 39.752C25.297 40.473 24.821 41 24.031 41ZM62.407 30.252C63.0783 30.28 63.7501 30.296 64.422 30.3C67.224 30.3 68.854 28.994 68.854 26.555C68.854 23.925 66.914 23.072 62.407 23.072V30.252ZM64.663 14.613C65.987 14.613 68.689 14.495 70.232 14.4C70.1923 14.6828 70.1689 14.9676 70.162 15.253C70.162 15.419 70.212 15.799 70.232 16.059C68.854 15.869 66.578 15.729 65.87 15.729C65.374 15.729 63.45 15.774 62.407 15.869V21.818H63.615C66.085 21.818 71.283 22.291 71.283 26.578C71.283 30.06 68.363 31.648 64.522 31.626C64.092 31.626 62.482 31.556 61.455 31.556C61.008 31.556 60.462 31.578 60.081 31.626C60.226 29.019 60.271 25.416 60.271 22.431C60.271 19.755 60.251 15.704 60.081 14.401C61.601 14.472 64.111 14.613 64.663 14.613ZM80.358 25.513L78.789 25.748C77.081 26.01 75.181 26.601 75.181 28.405C75.181 29.777 75.943 30.513 77.482 30.513C78.434 30.513 79.382 30.18 80.358 29.163V25.513ZM73.973 21.035C74.9 19.899 76.605 19.403 78.033 19.403C80.523 19.403 82.253 20.632 82.253 23.593V29.469C82.253 30.678 82.513 30.961 83.01 30.961C83.18 30.961 83.44 30.913 83.581 30.865L83.722 31.435C83.169 31.7144 82.5613 31.8687 81.942 31.887C81.16 31.887 80.664 31.531 80.473 30.843L80.333 30.325C79.05 31.343 77.651 31.887 76.489 31.887C74.329 31.887 72.926 30.748 72.926 28.758C72.926 26.626 74.519 25.63 76.7 25.229L79.116 24.779C79.928 24.636 80.358 24.399 80.358 23.808C80.358 21.224 79.265 20.562 77.462 20.562C76.062 20.562 75.015 20.964 74.259 22.506H73.973V21.035ZM86.975 19.708C87.235 19.708 87.732 19.661 88.087 19.638C87.897 21.436 87.873 24.421 87.873 24.541C88.87 24.589 90.313 24.636 91.079 24.636C91.861 24.636 93.356 24.589 94.067 24.541C94.067 24.398 94.042 21.415 93.857 19.638C94.254 19.661 94.779 19.708 95.06 19.708C95.325 19.708 95.822 19.661 96.178 19.638C95.988 21.415 95.962 24.398 95.962 25.63C95.962 26.626 95.987 29.824 96.178 31.626C95.8156 31.5791 95.4505 31.5557 95.085 31.556C94.684 31.556 94.208 31.579 93.856 31.626C94.042 29.824 94.067 26.626 94.067 25.87C93.025 25.795 91.601 25.702 91.055 25.702C90.409 25.702 88.825 25.748 87.873 25.82C87.873 26.626 87.898 29.824 88.087 31.626C87.7249 31.5792 87.3601 31.5558 86.995 31.556C86.594 31.556 86.118 31.579 85.762 31.626C85.948 29.824 85.973 26.626 85.973 25.63C85.973 24.421 85.948 21.415 85.762 19.638C86.163 19.661 86.689 19.708 86.975 19.708ZM100.613 19.708C100.87 19.708 101.371 19.661 101.722 19.638C101.536 21.415 101.516 24.421 101.516 24.851H101.896C102.679 24.851 106.688 20.299 107.069 19.638C107.399 19.661 107.942 19.708 108.228 19.708C108.468 19.708 109.038 19.661 109.39 19.638L103.721 24.708C104.437 25.56 108.202 29.801 109.911 31.626C109.439 31.5863 108.966 31.5629 108.493 31.556C108.062 31.556 107.42 31.579 106.923 31.626C106.047 30.252 103.365 27.101 101.896 25.488H101.516C101.516 26.365 101.536 29.824 101.722 31.626C101.361 31.5789 100.998 31.5555 100.634 31.556C100.237 31.556 99.761 31.579 99.401 31.626C99.596 29.824 99.621 26.626 99.621 25.63C99.621 24.421 99.596 21.415 99.401 19.638C99.807 19.661 100.328 19.708 100.613 19.708ZM121.318 22.551C124.641 22.551 126.59 21.225 126.59 18.712C126.59 16.367 124.736 15.729 122.435 15.729C122.034 15.729 120.656 15.751 120.321 15.799V22.454C120.611 22.506 121.082 22.551 121.318 22.551ZM120.395 14.473C121.223 14.473 122.295 14.4 122.907 14.4C127.297 14.4 129.007 15.729 129.007 18.712C129.007 22.576 125.754 23.807 121.893 23.807C121.368 23.7924 120.844 23.7607 120.321 23.712V27.81C120.321 28.994 120.371 30.44 120.516 31.626C119.679 31.5337 118.833 31.5337 117.996 31.626C118.14 29.018 118.19 25.417 118.19 22.432C118.19 19.756 118.165 15.704 117.995 14.4C118.781 14.423 119.849 14.473 120.395 14.473ZM131.61 25.82C131.61 28.497 132.727 30.96 135.24 30.96C137.66 30.96 139.108 28.638 139.108 25.464C139.108 22.906 138.111 20.324 135.43 20.324C132.868 20.324 131.61 23.001 131.61 25.82ZM141.364 25.56C141.364 29.185 139.009 31.886 135.289 31.886C131.635 31.886 129.355 29.21 129.355 25.892C129.355 21.96 131.871 19.402 135.5 19.402C139.108 19.402 141.364 22.007 141.364 25.56ZM152.992 22.219H152.706C151.874 20.869 150.716 20.324 149.408 20.324C146.631 20.324 145.303 23.002 145.303 25.607C145.303 28.616 146.963 30.961 149.905 30.961C150.881 30.961 151.758 30.821 153.132 29.326L153.347 29.587L153.062 30.748C151.919 31.508 150.645 31.887 149.172 31.887C145.468 31.887 143.048 29.304 143.048 25.655C143.048 21.84 145.658 19.403 149.478 19.403C150.716 19.403 152.065 19.638 153.583 20.444L152.992 22.219ZM164.967 22.219H164.685C163.858 20.869 162.695 20.324 161.392 20.324C158.611 20.324 157.282 23.002 157.282 25.607C157.282 28.616 158.951 30.961 161.888 30.961C162.856 30.961 163.738 30.821 165.112 29.326L165.322 29.587L165.042 30.748C163.903 31.508 162.621 31.887 161.152 31.887C157.452 31.887 155.032 29.304 155.032 25.655C155.032 21.84 157.642 19.403 161.462 19.403C162.695 19.403 164.048 19.638 165.567 20.444L164.967 22.219ZM168.484 31.556C168.339 31.556 167.913 31.601 167.723 31.626C167.913 29.824 167.938 26.626 167.938 25.63C167.938 24.42 167.913 21.415 167.723 19.638C168.128 19.661 168.645 19.708 168.931 19.708C169.191 19.708 169.688 19.661 170.049 19.638C169.859 21.415 169.838 24.398 169.838 25.63C169.838 26.626 169.858 28.022 169.883 28.686C171.186 27.101 175.838 21.202 176.955 19.638C177.211 19.683 177.377 19.708 177.662 19.708C177.802 19.708 178.299 19.661 178.569 19.638C178.374 21.415 178.349 24.398 178.349 25.63C178.349 26.626 178.374 29.824 178.569 31.625C178.207 31.5785 177.841 31.5552 177.476 31.555C177.07 31.555 176.599 31.578 176.239 31.625C176.429 29.825 176.454 26.625 176.454 25.63C176.455 24.5478 176.44 23.4657 176.408 22.384C174.79 24.02 170.52 29.611 169.171 31.625C168.945 31.5763 168.715 31.5538 168.484 31.556ZM181.921 31.556C181.667 31.5691 181.415 31.5924 181.163 31.626C181.349 29.824 181.374 26.626 181.374 25.63C181.374 24.42 181.349 21.415 181.164 19.638C181.564 19.661 182.082 19.708 182.367 19.708C182.628 19.708 183.129 19.661 183.485 19.638C183.295 21.415 183.273 24.398 183.273 25.63C183.273 26.626 183.294 28.022 183.319 28.686C184.623 27.101 189.269 21.202 190.387 19.638C190.647 19.683 190.813 19.708 191.099 19.708C191.239 19.708 191.74 19.661 192.001 19.638C191.814 21.415 191.789 24.398 191.789 25.63C191.789 26.626 191.814 29.824 192.001 31.625C191.639 31.5782 191.273 31.5548 190.908 31.555C190.507 31.555 190.031 31.578 189.679 31.625C189.869 29.825 189.89 26.625 189.89 25.63C189.89 24.399 189.87 22.884 189.845 22.384C188.231 24.02 183.956 29.611 182.603 31.625C182.379 31.5761 182.15 31.5536 181.921 31.556Z" fill="white" style="fill:white;fill-opacity:1;"/>
</svg>
