<svg width="35" height="35" viewBox="0 0 35 35" fill="none" xmlns="http://www.w3.org/2000/svg">
<path fill-rule="evenodd" clip-rule="evenodd" d="M14.9643 12.0106H30.5012V3.4072C30.5012 2.50357 30.1414 1.63693 29.5006 0.99795C28.8599 0.358974 27.9907 0 27.0844 0H4.87563C3.96944 0 3.10038 0.358974 2.45962 0.99795C1.81885 1.63693 1.45887 2.50357 1.45887 3.4072V17.0361L0.0142897 25.6793C-0.108195 26.4123 0.576998 27.0222 1.29338 26.8181L9.25916 24.5485V17.6999C9.25916 16.191 9.86023 14.7439 10.9302 13.677C12.0001 12.61 13.4512 12.0106 14.9643 12.0106ZM33.7065 34.9601L26.3747 32.8712H14.9643C14.2918 32.8712 13.6469 32.6047 13.1714 32.1306C12.6959 31.6565 12.4287 31.0132 12.4287 30.3427V17.6999C12.4287 17.0293 12.6959 16.3861 13.1714 15.9119C13.6469 15.4377 14.2918 15.1713 14.9643 15.1713H31.446C32.1184 15.1713 32.7635 15.4377 33.2389 15.9119C33.7143 16.3861 33.9816 17.0293 33.9816 17.6999V27.8141L34.9857 33.8215C35.1082 34.5542 34.4228 35.1644 33.7065 34.9601Z" fill="#3B86C6" style="fill:#3B86C6;fill:color(display-p3 0.2314 0.5255 0.7765);fill-opacity:1;"/>
</svg>
