<svg width="50" height="50" viewBox="0 0 50 50" fill="none" xmlns="http://www.w3.org/2000/svg">
<path fill-rule="evenodd" clip-rule="evenodd" d="M24.9969 0C38.8096 0 50 11.1937 50 25C50 38.8062 38.8075 50 24.9969 50C11.1935 50 0 38.8062 0 25C0 11.1937 11.1925 0 24.9969 0ZM48.0684 25C48.0684 37.7406 37.7403 48.0687 24.9969 48.0687C12.2576 48.0687 1.93268 37.7396 1.93268 25C1.93268 12.2583 12.2576 1.93125 24.9969 1.93125C37.7403 1.93125 48.0684 12.2583 48.0684 25ZM24.9969 42.7083C24.1751 42.7083 23.68 42.1594 23.6498 41.4083C23.4699 41.7469 23.2379 41.976 22.8884 42.0458C22.541 42.1108 22.1822 42.0694 21.8586 41.9271C21.5392 41.7991 21.2791 41.5561 21.1294 41.2458C20.9734 40.9292 21.0254 40.6031 21.1367 40.2229C20.7498 40.775 20.0965 40.9188 19.5213 40.6521C18.7328 40.2854 18.4457 39.6198 18.7692 38.8604C19.3921 37.3891 20.0128 35.9349 20.6351 34.4767C20.9857 33.6554 21.3368 32.8328 21.6891 32.0052C21.7231 31.925 21.7552 31.8436 21.7873 31.7621C21.8386 31.632 21.89 31.5014 21.9502 31.374C21.9676 31.337 21.9838 31.3021 21.9992 31.2689C22.0607 31.1363 22.1091 31.0318 22.1748 30.9427C22.237 30.8591 22.3152 30.7886 22.4047 30.7354C21.044 30.8844 20.3189 31.3792 19.8955 31.6681C19.8483 31.7003 19.8049 31.7299 19.7647 31.7562C19.761 31.7587 19.7574 31.7611 19.7539 31.7635C19.6585 31.8276 19.6505 31.833 19.2561 31.7104C19.0748 31.6577 18.8801 31.6787 18.7141 31.7687C18.5288 31.8669 18.3514 31.9794 18.1836 32.1052C18.06 32.2012 17.9357 32.2965 17.8115 32.3917C17.3913 32.7139 16.9713 33.0359 16.5755 33.3865C16.3362 33.599 15.993 33.9604 16.0398 34.2875C16.0772 34.5906 16.821 35.2927 17.0436 35.5021C17.5709 35.9979 16.7731 36.9312 15.71 36.8427C15.993 36.5469 16.0595 36.2958 16.0231 36.0729C16.0131 36.0728 16.0023 36.0729 15.9906 36.073C15.8796 36.0739 15.697 36.0754 15.5238 35.9208C15.4069 35.816 15.3763 35.6064 15.3461 35.3989C15.3171 35.2005 15.2885 35.004 15.1847 34.9031C14.8283 34.558 13.7016 34.5112 12.9633 34.4806C12.9261 34.479 12.8898 34.4775 12.8547 34.476C12.5468 34.4635 12.2254 34.3812 12.2483 33.9052C11.7833 33.9365 11.6866 34.2802 11.6866 34.5906C11.2861 34.3656 10.9439 33.2865 12.4209 33.0417C12.1713 32.8156 11.7573 32.7333 11.5025 33.0208C11.2622 32.625 11.8696 31.8469 12.9629 32.2854C12.9598 32.2823 13.4549 31.6385 14.933 33.2854L14.956 33.2682C15.1344 33.1345 15.3113 33.0019 15.4739 32.8521C16.046 32.3344 17.4877 30.9323 17.4877 30.9323C17.4877 30.1437 17.6063 28.6167 18.6538 27.701C19.1 27.3104 19.5275 27.1031 20.472 26.9333C20.472 26.9333 20.0154 26.2219 19.9436 25.9417C19.1198 26.7604 17.4648 27.0052 17.4648 25.624C16.1157 26.9646 14.8623 26.2417 14.8623 25.4C14.8156 25.8265 14.7188 26.2461 14.5741 26.65C14.571 26.6583 14.5678 26.667 14.5644 26.6761C14.3817 27.1648 13.7576 28.8344 12.1921 28.8344C12.1903 28.8646 12.1885 28.8982 12.1866 28.935C12.1506 29.6311 12.057 31.4389 10.2469 31.8604C10.1648 31.8792 10.0597 31.9073 10.0077 31.9698C9.23796 32.9219 6.03832 33.9219 5.64721 33.6521C5.65682 33.6452 5.66665 33.6382 5.67666 33.6312C5.92472 33.4555 6.28935 33.1972 6.34934 32.1229C6.38887 31.3854 6.47 27.5583 6.47 22.1677C6.47 20.2594 6.677 14.0781 12.8256 13.2167C13.7586 13.0865 14.6761 13.1542 15.4708 13.7406C16.5526 14.5448 17.0852 15.8969 16.4486 17.4292C16.4436 17.4424 16.4389 17.4555 16.4343 17.4685C16.4195 17.51 16.4052 17.5502 16.383 17.5875C16.1667 17.9521 16.2551 18.2667 16.537 18.5458C17.0498 19.0531 17.6479 19.3958 18.3677 19.4792C18.8213 19.5312 19.1978 19.3323 19.4984 19.0219C20.1881 18.3156 20.6562 17.4854 20.8257 16.5104C21.1374 14.7084 20.6752 13.7801 20.6241 13.6775C20.6227 13.6746 20.6215 13.6724 20.6208 13.6708C20.1205 12.6729 19.0584 11.9417 17.8268 11.8375C17.263 10.7896 15.6445 11.2042 15.6445 11.2042C15.2388 11.2917 15.0963 11.4062 14.9954 11.6052C14.9954 11.6052 14.285 10.5302 14.9538 10.099C15.6247 9.66667 17.1216 9.48854 17.1216 9.48854C17.1216 8.78854 18.2866 8.24375 20.3909 8.61771C22.9363 9.06979 23.4834 8.08021 23.4834 8.08021C23.5905 9.29062 22.6585 9.91562 22.36 10.0844C23.3263 11.126 24.6755 13.2073 24.9969 16.1604C25.3193 13.2073 26.6685 11.126 27.6338 10.0844C27.3352 9.91562 26.4043 9.29062 26.5104 8.08021C26.5104 8.08021 27.0575 9.06979 29.6029 8.61771C31.7082 8.24375 32.8732 8.78854 32.8732 9.48854C32.8732 9.48854 34.3701 9.66562 35.0399 10.099C35.7098 10.5302 34.9983 11.6052 34.9983 11.6052C34.8974 11.4062 34.7549 11.2927 34.3493 11.2042C34.3493 11.2042 32.7307 10.7896 32.1669 11.8375C30.9353 11.9417 29.8743 12.6729 29.374 13.6708L29.3723 13.6743C29.331 13.7592 28.8825 14.6801 29.1681 16.5104C29.321 17.4875 29.8057 18.3156 30.4964 19.0219C30.797 19.3323 31.1725 19.5302 31.6271 19.4792C32.3458 19.3958 32.945 19.0521 33.4578 18.5458C33.7387 18.2667 33.8271 17.9521 33.6118 17.5875C33.5873 17.5478 33.5724 17.5046 33.5571 17.4603C33.5535 17.45 33.55 17.4396 33.5462 17.4292C32.9086 15.8979 33.4422 14.5437 34.524 13.7417C35.3177 13.1552 36.2362 13.0854 37.1682 13.2167C43.3178 14.0781 43.5238 20.2594 43.5238 22.1677C43.5238 27.5583 43.6059 31.3854 43.6444 32.1229C43.7045 33.1982 44.0697 33.456 44.3187 33.6316C44.3285 33.6386 44.3382 33.6454 44.3476 33.6521C43.9554 33.9229 40.7558 32.9219 39.9861 31.9698C39.9341 31.9073 39.83 31.8792 39.7479 31.8604C37.9378 31.4389 37.8442 29.6311 37.8082 28.9349C37.8063 28.8982 37.8045 28.8646 37.8027 28.8344C36.2363 28.8344 35.6114 27.1629 35.4291 26.6752C35.4258 26.6664 35.4226 26.658 35.4196 26.65C35.2749 26.2461 35.1782 25.8265 35.1315 25.4C35.1315 26.2417 33.8791 26.9646 32.53 25.624C32.53 27.0052 30.874 26.7604 30.0512 25.9417C29.9784 26.2219 29.5207 26.9333 29.5207 26.9333C30.4673 27.1031 30.8937 27.3104 31.341 27.701C32.3875 28.6177 32.506 30.1437 32.506 30.9323C32.506 30.9323 33.9488 32.3344 34.5209 32.8521C34.6866 33.0057 34.8683 33.1412 35.0523 33.2784L35.0618 33.2854C36.5389 31.6385 37.034 32.2823 37.0309 32.2854C38.1241 31.8469 38.7316 32.626 38.4923 33.0198C38.2375 32.7333 37.8225 32.8156 37.5728 33.0406C39.0499 33.2865 38.7077 34.3656 38.3082 34.5906C38.3082 34.2802 38.2104 33.9365 37.7465 33.9052C37.7694 34.3812 37.4469 34.4635 37.1391 34.476C37.1039 34.4775 37.0677 34.479 37.0304 34.4806C36.2922 34.5112 35.1655 34.558 34.809 34.9031C34.7054 35.0038 34.6769 35.2 34.6482 35.3982C34.618 35.6058 34.5875 35.8158 34.4699 35.9208C34.2977 36.0754 34.1152 36.0739 34.0035 36.073C33.9917 36.0729 33.9807 36.0728 33.9706 36.0729C33.9353 36.2958 34.0018 36.5469 34.2848 36.8437C33.2206 36.9312 32.4228 35.9979 32.9512 35.5021L32.9525 35.5009C33.1745 35.2912 33.9166 34.5901 33.954 34.2875C34.0018 33.9604 33.6575 33.599 33.4183 33.3865C33.0171 33.0311 32.5917 32.7052 32.1655 32.3786C32.047 32.2877 31.9283 32.1968 31.8101 32.1052C31.6423 31.9794 31.4649 31.8669 31.2796 31.7687C31.114 31.679 30.9197 31.658 30.7387 31.7104C30.3444 31.833 30.3363 31.8276 30.24 31.7645C30.2365 31.7622 30.2328 31.7598 30.2291 31.7573C30.1894 31.7312 30.1465 31.7018 30.1 31.67C29.677 31.3805 28.9526 30.8847 27.589 30.7365C27.692 30.799 27.7617 30.8656 27.8189 30.9427C27.887 31.0339 27.9363 31.1411 27.9992 31.278C28.0132 31.3085 28.0279 31.3404 28.0436 31.374C28.1041 31.503 28.1563 31.6343 28.2083 31.7652C28.2402 31.8456 28.2721 31.9259 28.3057 32.0052C28.6505 32.8151 28.994 33.6201 29.3369 34.4239C29.9665 35.8997 30.5942 37.371 31.2245 38.8594C31.5491 39.6198 31.2609 40.2865 30.4735 40.651C29.8972 40.9188 29.244 40.776 28.8581 40.224C28.9694 40.6031 29.0214 40.9292 28.8643 41.2458C28.7152 41.5561 28.4554 41.7991 28.1362 41.9271C27.8126 42.0694 27.4538 42.1108 27.1064 42.0458C26.7558 41.976 26.5239 41.7469 26.3439 41.4083C26.3138 42.1594 25.8186 42.7083 24.9969 42.7083Z" fill="#3B86C6" style="fill:#3B86C6;fill:color(display-p3 0.2314 0.5255 0.7765);fill-opacity:1;"/>
</svg>
